<svg viewBox="0 0 100 45" fill="#fff" xmlns="http://www.w3.org/2000/svg">
<path d="M5.9734 37.7412C5.9734 38.5619 5.91218 39.3024 5.79082 39.9638C5.66892 40.6247 5.44238 41.1948 5.11052 41.6735C4.77867 42.1522 4.33058 42.5225 3.76652 42.7848C3.20232 43.0466 2.47739 43.1781 1.5928 43.1781C1.06178 43.1781 0.530888 43.0755 0 42.8703L0.298684 41.058C0.763228 41.2402 1.18327 41.3316 1.55976 41.3316C2.09079 41.3316 2.51649 41.2343 2.83743 41.0409C3.15782 40.847 3.40162 40.5964 3.56748 40.2887C3.73334 39.9809 3.84392 39.6219 3.89934 39.2116C3.95436 38.8012 3.98227 38.3679 3.98227 37.9122V19.174H5.9734V37.7412Z" />
<path fill-rule="evenodd" clip-rule="evenodd" d="M13.0084 23.7389C12.6102 24.7535 12.4111 25.8648 12.4111 27.0728C12.4111 28.2812 12.6102 29.3925 13.0084 30.4067C13.4066 31.4213 13.9594 32.2991 14.6677 33.0396C15.3755 33.7806 16.2275 34.356 17.2231 34.7664C18.2186 35.1767 19.3024 35.3819 20.4753 35.3819C21.6476 35.3819 22.7261 35.1767 23.7109 34.7664C24.6951 34.356 25.5471 33.7806 26.2662 33.0396C26.985 32.2991 27.5439 31.4213 27.9421 30.4067C28.3403 29.3926 28.5395 28.2813 28.5395 27.0728C28.5395 25.8648 28.3403 24.7535 27.9421 23.7389C27.5439 22.7248 26.985 21.847 26.2662 21.1059C25.547 20.3654 24.695 19.7895 23.7109 19.3791C22.7261 18.9688 21.6476 18.7637 20.4753 18.7637C19.3022 18.7637 18.2186 18.9688 17.2231 19.3791C16.2274 19.7895 15.3755 20.3654 14.6677 21.1059C13.9594 21.847 13.4066 22.7248 13.0084 23.7389ZM14.817 29.586C14.54 28.7995 14.4022 27.9618 14.4022 27.0728C14.4022 26.1837 14.5402 25.346 14.817 24.5595C15.0933 23.7731 15.4972 23.0892 16.0282 22.5079C16.5592 21.9266 17.2005 21.465 17.953 21.123C18.7049 20.7811 19.5459 20.6101 20.4751 20.6101C21.4045 20.6101 22.2448 20.7811 22.9973 21.123C23.7492 21.465 24.3911 21.9266 24.9221 22.5079C25.4531 23.0892 25.8564 23.7731 26.1334 24.5595C26.4097 25.346 26.5482 26.1837 26.5482 27.0728C26.5482 27.9618 26.4097 28.7995 26.1334 29.586C25.8564 30.3725 25.4531 31.0563 24.9221 31.6376C24.3911 32.2189 23.7492 32.6805 22.9973 33.0225C22.2448 33.3644 21.4044 33.5354 20.4751 33.5354C19.5459 33.5354 18.7049 33.3644 17.953 33.0225C17.2005 32.6805 16.5592 32.2189 16.0282 31.6376C15.4973 31.0563 15.0933 30.3725 14.817 29.586Z" />
<path d="M47.6208 30.5263C47.6208 30.8229 47.6317 31.1819 47.654 31.6034C47.6757 32.0255 47.6923 32.453 47.7038 32.8857C47.7147 33.319 47.7313 33.7235 47.7535 34.0996C47.7752 34.4757 47.7867 34.7664 47.7867 34.9715H45.7955C45.7732 34.379 45.7566 33.8089 45.7458 33.2618C45.7345 32.7147 45.7068 32.3616 45.6629 32.2018H45.5633C45.1651 33.0684 44.5014 33.8148 43.5722 34.4415C42.643 35.0682 41.5587 35.3819 40.32 35.3819C39.1253 35.3819 38.1463 35.1879 37.3831 34.8006C36.6198 34.4132 36.0225 33.9062 35.5911 33.2789C35.1596 32.6522 34.8662 31.9283 34.7116 31.1076C34.5565 30.287 34.4793 29.4439 34.4793 28.5773V19.174H36.4704V28.4747C36.4704 29.1132 36.5254 29.7345 36.6363 30.3383C36.7467 30.9425 36.9401 31.4838 37.2171 31.9625C37.4935 32.4412 37.8808 32.8232 38.3786 33.108C38.8763 33.3933 39.5235 33.5354 40.32 33.5354C41.0501 33.5354 41.7413 33.4045 42.3941 33.1422C43.0463 32.8804 43.6105 32.4813 44.0865 31.9454C44.562 31.41 44.9379 30.7374 45.2149 29.9279C45.4912 29.1191 45.6297 28.167 45.6297 27.0728V19.174H47.6208V30.5263Z" />
<path d="M54.7558 23.6192C54.7558 23.3232 54.7443 22.9642 54.7226 22.5421C54.7002 22.1205 54.6836 21.6931 54.6729 21.2598C54.6614 20.8271 54.6448 20.4221 54.6231 20.0459C54.6007 19.6698 54.5899 19.3791 54.5899 19.174H56.5811C56.6028 19.767 56.6194 20.3366 56.6308 20.8837C56.6417 21.4308 56.6691 21.7845 56.7137 21.9437C57.2224 21.0092 57.8752 20.2458 58.6717 19.6527C59.4682 19.0602 60.4414 18.7637 61.5921 18.7637C61.7912 18.7637 61.9846 18.7808 62.1728 18.8149C62.3607 18.8491 62.5545 18.8892 62.7536 18.9346L62.5213 20.9521C62.2558 20.8612 62.0013 20.8153 61.7581 20.8153C60.8953 20.8153 60.1485 20.9579 59.5181 21.2427C58.8875 21.528 58.3675 21.9213 57.9584 22.4224C57.5488 22.9241 57.2449 23.5113 57.0457 24.1834C56.8466 24.856 56.7471 25.58 56.7471 26.3547V34.9715H54.7559V23.6192H54.7558Z" />
<path d="M67.4657 23.6192C67.4657 23.3232 67.4542 22.9642 67.4325 22.5421C67.4101 22.1205 67.3935 21.6931 67.3828 21.2598C67.3713 20.8271 67.3547 20.4221 67.333 20.0459C67.3106 19.6698 67.2998 19.3791 67.2998 19.174H69.291C69.3127 19.767 69.3293 20.3366 69.3407 20.8837C69.3516 21.4308 69.379 21.7845 69.4236 21.9437H69.5232C69.9214 21.0776 70.5851 20.3312 71.5143 19.704C72.4437 19.0773 73.5273 18.7637 74.7665 18.7637C75.9611 18.7637 76.9344 18.9576 77.6869 19.345C78.4386 19.7328 79.0309 20.2399 79.4622 20.8666C79.8936 21.4938 80.1923 22.2172 80.3583 23.0379C80.5243 23.8585 80.6072 24.7022 80.6072 25.5682V34.9715H78.6161V25.6708C78.6161 25.0329 78.5607 24.4115 78.4502 23.8072C78.3392 23.2035 78.1459 22.6618 77.8694 22.183C77.5925 21.7043 77.2057 21.3229 76.708 21.0375C76.2102 20.7528 75.563 20.6101 74.7666 20.6101C74.0366 20.6101 73.3448 20.7416 72.6926 21.0034C72.0397 21.2657 71.4756 21.6648 71 22.2001C70.5241 22.736 70.1482 23.4087 69.8717 24.2176C69.5948 25.027 69.4569 25.9786 69.4569 27.0728V34.9715H67.4658V23.6192H67.4657Z" />
<path d="M91.8902 39.8612C91.5138 40.8871 90.9941 41.696 90.3306 42.289C89.6668 42.8815 88.7819 43.1781 87.6757 43.1781C87.3439 43.1781 87.0119 43.1492 86.68 43.0926C86.3482 43.0354 86.0272 42.9611 85.7176 42.8703L85.9168 40.9555C86.2041 41.0463 86.4976 41.1318 86.7961 41.2119C87.0948 41.2915 87.3987 41.3316 87.7089 41.3316C88.0624 41.3316 88.3777 41.2514 88.6547 41.0922C88.9311 40.9325 89.169 40.7273 89.3682 40.4767C89.5673 40.2256 89.7383 39.9467 89.8825 39.639C90.0261 39.3312 90.1531 39.0176 90.2641 38.6987L91.6578 35.0399L85.4189 19.174H87.6424L92.7198 32.4754L97.6644 19.174H99.7882L91.8902 39.8612Z" />
<path fill-rule="evenodd" clip-rule="evenodd" d="M4.86537 0C5.10243 0 5.45573 0.0503333 5.69994 0.123918C7.4474 0.630944 8.44054 2.03453 8.7759 3.52538V4.36888C8.13238 6.86755 7.12704 9.17974 6.14489 11.4386C5.71132 12.4358 5.28227 13.4225 4.89086 14.4104C4.55993 13.5973 4.2192 12.793 3.87829 11.9882C2.83909 9.53498 1.79818 7.07774 1.02793 4.35739V3.52538C1.40361 2.0095 2.32555 0.667737 4.08178 0.123918C4.29228 0.0555308 4.56305 0 4.86537 0ZM3.15728 4.0729C3.15728 5.02978 3.92199 5.80543 4.86537 5.80543C5.80876 5.80543 6.57347 5.02978 6.57347 4.0729C6.57347 3.11601 5.80876 2.34036 4.86537 2.34036C3.92199 2.34036 3.15728 3.11601 3.15728 4.0729Z" />
</svg>
